# xmcd CD database file
#
# Track frame offsets:
#	182
#	14792
#	29947
#	42610
#	57452
#	69740
#	89560
#	108425
#	128260
#	144640
#	164422
#	182165
#	199955
#	216390
#	232070
#	249345
#	263002
#	279047
#	293342
#	307595
#
# Disc length: 4347 seconds
#
# Revision: 4
# Processed by: cddbd v1.5.2PL0 Copyright (c) Steve Scherf et al.
# Submitted via: CDex 1.51
#
DISCID=3010f914
DTITLE=Herve Villard - Lavie est belle, le monde est beau
DYEAR=1995
DGENRE=Chansons
TTITLE0=Herve Villard - Fais la rire
TTITLE1=Herve Villard - Capri c'est fini
TTITLE2=Herve Villard - Mourir ou vivre
TTITLE3=Herve Villard - Sayonara
TTITLE4=Herve Villard - Un monde fait pour nous "il mondo"
TTITLE5=Herve Villard - Mediterraneenne
TTITLE6=Herve Villard - Venise pour l'eternite
TTITLE7=Herve Villard - Reveries
TTITLE8=Herve Villard - Nous
TTITLE9=Herve Villard - Je l'aime tant
TTITLE10=Herve Villard - Reviens
TTITLE11=Herve Villard - J'ai mal, je t'aime
TTITLE12=Herve Villard - Pas pleurer
TTITLE13=Herve Villard - J'm'en balance
TTITLE14=Herve Villard - Dans le coeur des hommes
TTITLE15=Herve Villard - Amore caro amore bello
TTITLE16=Herve Villard - Les anges du matin
TTITLE17=Herve Villard - Pour toi ce n'etait rien
TTITLE18=Herve Villard - L'idiot
TTITLE19=Herve Villard - La vie est belle, le monde est beau
EXTD=YEAR: 1995
EXTT0=
EXTT1=
EXTT2=
EXTT3=
EXTT4=
EXTT5=
EXTT6=
EXTT7=
EXTT8=
EXTT9=
EXTT10=
EXTT11=
EXTT12=
EXTT13=
EXTT14=
EXTT15=
EXTT16=
EXTT17=
EXTT18=
EXTT19=
PLAYORDER=
